<?xml version="1.0" encoding="utf-8"?>
<!-- Generator: Adobe Illustrator 28.1.0, SVG Export Plug-In . SVG Version: 6.00 Build 0)  -->
<svg version="1.1" xmlns="http://www.w3.org/2000/svg" xmlns:xlink="http://www.w3.org/1999/xlink" x="0px" y="0px"
	 viewBox="0 0 172.78 27.93" style="enable-background:new 0 0 172.78 27.93;" xml:space="preserve">
<style type="text/css">
	.st0{display:none;opacity:0.3;}
	.st1{display:inline;fill:#00FF00;}
	.st2{fill:#059932;}
	.st3{fill:#DD2F33;}
</style>
<g id="Layer_1">
	<path d="M451.61-24.28"/>
	<g>
		<path d="M39.56,27.54V6.94c0-2.45,1.16-3.2,3.2-3.2h10.91c4.79,0,6.09,2.79,6.09,7.28c0,4.69-1.29,7.45-6.09,7.45H42.72v9.08
			H39.56z M52.55,15.88c3.37,0,3.91-1.7,3.91-4.86c0-3.06-0.61-4.69-3.91-4.69h-8.29c-1.36,0-1.53,0.48-1.53,1.56v7.99H52.55z"/>
		<path d="M62.65,3.75h2.86v23.8h-2.86V3.75z"/>
		<path d="M86.82,18.47c0,6.83-2.79,9.28-9.25,9.28c-6.46,0-9.25-2.45-9.25-9.28c0-6.8,2.79-9.14,9.25-9.14
			C84.03,9.32,86.82,11.67,86.82,18.47z M77.57,25.44c4.59,0,6.26-1.87,6.26-6.97s-1.67-6.83-6.26-6.83c-4.59,0-6.26,1.73-6.26,6.83
			S72.98,25.44,77.57,25.44z"/>
		<path d="M107.56,18.47c0,6.83-2.79,9.28-9.25,9.28c-6.46,0-9.25-2.45-9.25-9.28c0-6.8,2.79-9.14,9.25-9.14
			C104.77,9.32,107.56,11.67,107.56,18.47z M98.31,25.44c4.59,0,6.25-1.87,6.25-6.97s-1.67-6.83-6.25-6.83
			c-4.59,0-6.26,1.73-6.26,6.83S93.72,25.44,98.31,25.44z"/>
		<path d="M110.38,12.48c0-1.87,0.78-2.96,2.75-2.96h16.11c3.91,0,6.09,1.7,6.09,5.85v12.17h-2.86V15.88c0-2.45-0.88-4.05-3.6-4.05
			h-4.59v15.71h-2.86V11.84h-7.14c-0.68,0-1.05,0.24-1.05,1.16v14.55h-2.86V12.48z"/>
		<path d="M142.07,27.54c-2.11,0-3.33-0.65-3.33-2.92V3.75h2.86v5.78h5.51c5.78,0,7.38,3.3,7.38,8.91c0,5.61-1.6,9.11-7.38,9.11
			H142.07z M141.59,24.01c0,0.78,0.2,1.22,1.16,1.22h3.84c4.32,0,4.9-2.89,4.9-6.8c0-3.91-0.58-6.59-4.9-6.59h-5V24.01z"/>
		<path d="M167.57,9.53c3.2,0,4.69,1.97,4.69,4.93v10.37c0,1.84-0.71,2.72-2.82,2.72h-8.02c-3.3,0-4.69-1.77-4.69-5.51
			c0-3.57,1.39-5.47,4.69-5.47h7.99v-2.14c0-1.53-0.75-2.58-2.55-2.58h-8.77V9.53H167.57z M161.96,18.88
			c-1.77,0-2.24,1.22-2.24,3.16c0,1.94,0.48,3.2,2.24,3.2h6.49c0.65,0,0.95-0.37,0.95-0.92v-5.44H161.96z"/>
	</g>
	<path class="st0" d="M52.29,87.32c0,3.62-1.48,4.92-4.9,4.92c-3.42,0-4.9-1.3-4.9-4.92c0-3.6,1.48-4.85,4.9-4.85
		C50.82,82.47,52.29,83.71,52.29,87.32z M47.39,91.01c2.43,0,3.31-0.99,3.31-3.69s-0.88-3.62-3.31-3.62c-2.43,0-3.31,0.92-3.31,3.62
		S44.96,91.01,47.39,91.01z"/>
	<g class="st0">
		<circle class="st1" cx="57.74" cy="79.21" r="7.1"/>
		<circle class="st1" cx="46.71" cy="97.84" r="5.77"/>
		<path class="st1" d="M51.71,82.94c-0.16-0.25-1.67-2.5-4.55-2.71c-3.02-0.22-4.87,1.99-5.03,2.19c-0.45-2.55-0.9-5.1-1.34-7.65
			c3.57,4.46,7.85,4.46,11.42,0C52.04,77.49,51.87,80.21,51.71,82.94z"/>
		<path class="st1" d="M42.12,82.42c-1.52,1.92-1.73,4.57-0.54,6.67c1.11,1.96,3.26,3.12,5.54,3C45.08,93.72,43.04,95.36,41,97
			c0.16-0.78,0.61-3.44-0.88-6.19c-1.96-3.63-5.69-4.5-6.25-4.62C36.63,84.93,39.37,83.67,42.12,82.42z"/>
		<path class="st1" d="M41.36,83.25c-0.14,0.07-0.28,0.13-0.43,0.2c0.06-0.11,0.12-0.23,0.18-0.34c0.07-0.09,0.15-0.17,0.22-0.26
			C41.34,82.98,41.35,83.12,41.36,83.25z"/>
		<path class="st1" d="M35.23,72.11c-3.92,0-7.1,3.18-7.1,7.1s3.18,7.1,7.1,7.1s7.1-3.18,7.1-7.1S39.16,72.11,35.23,72.11z
			 M35.23,83.47c-2.35,0-4.26-1.91-4.26-4.26c0-2.35,1.91-4.26,4.26-4.26c2.35,0,4.26,1.91,4.26,4.26
			C39.5,81.56,37.59,83.47,35.23,83.47z"/>
		<path class="st1" d="M42.12,82.42c-0.27,0.2-0.54,0.4-0.81,0.6c-0.02-0.68-0.03-1.36-0.05-2.04c0.26,0.14,0.52,0.28,0.78,0.42
			C42.07,81.74,42.1,82.08,42.12,82.42z"/>
		<path class="st1" d="M48.23,69.12c1.48,1.18,1.72,3.34,0.53,4.82c-1.18,1.48-3.34,1.72-4.82,0.53c-1.48-1.18-3.75-7.4-3.75-7.4
			S46.75,67.93,48.23,69.12z"/>
	</g>
	<path class="st2" d="M15.91,1.99C16.92,2.9,17,4.46,16.09,5.47c-0.91,1.01-2.47,1.09-3.48,0.18S10.23,0.2,10.23,0.2
		S14.9,1.08,15.91,1.99z"/>
	<path class="st3" d="M11.31,9c0,4.04-1.65,5.49-5.47,5.49c-3.82,0-5.47-1.45-5.47-5.49c0-4.02,1.65-5.41,5.47-5.41
		C9.66,3.6,11.31,4.98,11.31,9z M5.84,12.36c2.2,0,3-0.9,3-3.34s-0.8-3.28-3-3.28c-2.2,0-3,0.83-3,3.28S3.64,12.36,5.84,12.36z"/>
	<path class="st3" d="M28.27,9c0,4.04-1.65,5.49-5.47,5.49c-3.82,0-5.47-1.45-5.47-5.49c0-4.02,1.65-5.41,5.47-5.41
		C26.62,3.6,28.27,4.98,28.27,9z"/>
	<path class="st3" d="M18.89,23.13c0,3.25-1.33,4.42-4.4,4.42c-3.07,0-4.4-1.16-4.4-4.42c0-3.24,1.33-4.35,4.4-4.35
		C17.56,18.77,18.89,19.89,18.89,23.13z"/>
	<path class="st3" d="M10.7,12.31c-0.88,1.46-0.84,3.29,0.11,4.66c1.35,1.94,3.73,1.81,3.84,1.8c-1.48,0.96-2.96,1.91-4.45,2.87
		c0.07-0.37,0.47-2.72-1.13-4.83c-1.51-1.99-3.7-2.3-4.1-2.35C6.88,13.75,8.79,13.03,10.7,12.31z"/>
	<path class="st3" d="M10.84,6.03c0.67,1.3,2.02,2.12,3.48,2.12c1.46,0,2.81-0.82,3.48-2.11c0.06,2.12,0.13,4.23,0.19,6.35
		c-0.04-0.08-0.1-0.2-0.19-0.33c-0.58-0.91-1.85-1.99-3.58-1.95c-1.48,0.04-2.83,0.88-3.52,2.2C10.75,10.22,10.79,8.13,10.84,6.03z"
		/>
</g>
<g id="Layer_2">
</g>
</svg>
