<?xml version="1.0" encoding="utf-8"?>
<!-- Generator: Adobe Illustrator 28.1.0, SVG Export Plug-In . SVG Version: 6.00 Build 0)  -->
<svg version="1.1" xmlns="http://www.w3.org/2000/svg" xmlns:xlink="http://www.w3.org/1999/xlink" x="0px" y="0px"
	 viewBox="0 0 28.59 27.93" style="enable-background:new 0 0 28.59 27.93;" xml:space="preserve">
<style type="text/css">
	.st0{fill:#059932;}
	.st1{fill:#DD2F33;}
</style>
<g id="Layer_1">
	<path class="st0" d="M15.91,1.99C16.92,2.9,17,4.46,16.09,5.47c-0.91,1.01-2.47,1.09-3.48,0.18S10.23,0.2,10.23,0.2
		S14.9,1.08,15.91,1.99z"/>
	<path class="st1" d="M11.31,9c0,4.04-1.65,5.49-5.47,5.49c-3.82,0-5.47-1.45-5.47-5.49c0-4.02,1.65-5.41,5.47-5.41
		C9.66,3.6,11.31,4.98,11.31,9z M5.84,12.36c2.2,0,3-0.9,3-3.34s-0.8-3.28-3-3.28c-2.2,0-3,0.83-3,3.28S3.64,12.36,5.84,12.36z"/>
	<path class="st1" d="M28.27,9c0,4.04-1.65,5.49-5.47,5.49c-3.82,0-5.47-1.45-5.47-5.49c0-4.02,1.65-5.41,5.47-5.41
		C26.62,3.6,28.27,4.98,28.27,9z"/>
	<path class="st1" d="M18.89,23.13c0,3.25-1.33,4.42-4.4,4.42c-3.07,0-4.4-1.16-4.4-4.42c0-3.24,1.33-4.35,4.4-4.35
		C17.56,18.77,18.89,19.89,18.89,23.13z"/>
	<path class="st1" d="M10.7,12.31c-0.88,1.46-0.84,3.29,0.11,4.66c1.35,1.94,3.73,1.81,3.84,1.8c-1.48,0.96-2.96,1.91-4.45,2.87
		c0.07-0.37,0.47-2.72-1.13-4.83c-1.51-1.99-3.7-2.3-4.1-2.35C6.88,13.75,8.79,13.03,10.7,12.31z"/>
	<path class="st1" d="M10.84,6.03c0.67,1.3,2.02,2.12,3.48,2.12c1.46,0,2.81-0.82,3.48-2.11c0.06,2.12,0.13,4.23,0.19,6.35
		c-0.04-0.08-0.1-0.2-0.19-0.33c-0.58-0.91-1.85-1.99-3.58-1.95c-1.48,0.04-2.83,0.88-3.52,2.2C10.75,10.22,10.79,8.13,10.84,6.03z"
		/>
</g>
<g id="Layer_2">
</g>
</svg>
